<svg width="64" height="20" viewBox="0 0 64 20" fill="none" xmlns="http://www.w3.org/2000/svg">
<path d="M1.87039 2.57126H6.57742C7.64513 2.57126 8.54682 2.73402 9.2825 3.05954C10.0247 3.38506 10.5878 3.86683 10.972 4.50485C11.3626 5.13636 11.5579 5.91436 11.5579 6.83884C11.5579 7.48988 11.4244 8.08558 11.1575 8.62595C10.8971 9.1598 10.5195 9.61553 10.0247 9.99313C9.53641 10.3642 8.95047 10.6409 8.26688 10.8232L7.73953 11.0283H3.3157L3.29617 9.49509H6.63602C7.3131 9.49509 7.87625 9.3779 8.32547 9.14352C8.77469 8.90264 9.11323 8.58037 9.34109 8.17673C9.56896 7.77308 9.68289 7.32712 9.68289 6.83884C9.68289 6.29196 9.57547 5.81345 9.36063 5.40329C9.14578 4.99313 8.80724 4.67738 8.345 4.45602C7.88927 4.22816 7.30008 4.11423 6.57742 4.11423H3.75516V16.79H1.87039V2.57126ZM10.1809 16.79L6.72391 10.3447L8.6868 10.3349L12.1927 16.6728V16.79H10.1809ZM22.9294 2.57126H24.8044V12.1904C24.8044 13.2581 24.5667 14.1468 24.0915 14.8564C23.6162 15.5661 22.9847 16.0999 22.197 16.458C21.4157 16.8095 20.5661 16.9853 19.6481 16.9853C18.6846 16.9853 17.8122 16.8095 17.0309 16.458C16.2562 16.0999 15.641 15.5661 15.1852 14.8564C14.736 14.1468 14.5114 13.2581 14.5114 12.1904V2.57126H16.3766V12.1904C16.3766 12.9326 16.5134 13.5446 16.7868 14.0263C17.0602 14.5081 17.4411 14.8662 17.9294 15.1006C18.4242 15.3349 18.9971 15.4521 19.6481 15.4521C20.3057 15.4521 20.8786 15.3349 21.3669 15.1006C21.8617 14.8662 22.2458 14.5081 22.5192 14.0263C22.7927 13.5446 22.9294 12.9326 22.9294 12.1904V2.57126Z" fill="#3A3A3A"/>
<g clip-path="url(#clip0_597_881)">
<mask id="mask0_597_881" style="mask-type:luminance" maskUnits="userSpaceOnUse" x="30" y="0" width="34" height="20">
<path d="M63.22 0.290009H30.22V19.29H63.22V0.290009Z" fill="white"/>
</mask>
<g mask="url(#mask0_597_881)">
<path d="M63.22 0.290009H30.22V6.62657H63.22V0.290009Z" fill="#F4F4F4"/>
</g>
<mask id="mask1_597_881" style="mask-type:luminance" maskUnits="userSpaceOnUse" x="30" y="0" width="34" height="20">
<path d="M63.22 0.290009H30.22V19.29H63.22V0.290009Z" fill="white"/>
</mask>
<g mask="url(#mask1_597_881)">
<path d="M63.22 6.62659H30.22V12.9632H63.22V6.62659Z" fill="#323E95"/>
</g>
<mask id="mask2_597_881" style="mask-type:luminance" maskUnits="userSpaceOnUse" x="30" y="0" width="34" height="20">
<path d="M63.22 0.290009H30.22V19.29H63.22V0.290009Z" fill="white"/>
</mask>
<g mask="url(#mask2_597_881)">
<path d="M63.22 12.9534H30.22V19.29H63.22V12.9534Z" fill="#D8001E"/>
</g>
</g>
<rect x="30.47" y="0.540009" width="32.5" height="18.5" stroke="#3A3A3A" stroke-opacity="0.17" stroke-width="0.5"/>
<defs>
<clipPath id="clip0_597_881">
<rect x="30.22" y="0.290009" width="33" height="19" fill="white"/>
</clipPath>
</defs>
</svg>
