<svg width="40" height="40" viewBox="0 0 40 40" fill="none" xmlns="http://www.w3.org/2000/svg">
<path d="M24.75 16.5L19.75 21.5L17.25 19M31 17.9563C31 26.1666 24.7899 29.8476 22.1572 31.0392L22.1539 31.0407C21.877 31.166 21.7382 31.2288 21.4236 31.2829C21.2243 31.3171 20.7769 31.3171 20.5777 31.2829C20.2618 31.2286 20.1215 31.1656 19.8424 31.0392C17.2097 29.8476 11 26.1666 11 17.9563V13.0002C11 11.6001 11 10.8995 11.2725 10.3647C11.5122 9.89434 11.8943 9.51217 12.3647 9.27248C12.8995 9 13.6001 9 15.0002 9H27.0002C28.4004 9 29.0995 9 29.6342 9.27248C30.1046 9.51217 30.4881 9.89434 30.7278 10.3647C31 10.899 31 11.5987 31 12.9961V17.9563Z" stroke="#375FFF" stroke-linecap="round" stroke-linejoin="round"/>
</svg>
