<svg width="24" height="24" viewBox="0 0 24 24" fill="none" xmlns="http://www.w3.org/2000/svg">
<path d="M14.3684 7.73684H14.3779M12 20.0526H5.84211C5.08833 20.0526 4.36543 19.7532 3.83243 19.2202C3.29944 18.6872 3 17.9643 3 17.2105V5.84211C3 5.08833 3.29944 4.36543 3.83243 3.83243C4.36543 3.29944 5.08833 3 5.84211 3H17.2105C17.9643 3 18.6872 3.29944 19.2202 3.83243C19.7532 4.36543 20.0526 5.08833 20.0526 5.84211V12M3 15.3158L7.73684 10.5789C8.616 9.73295 9.69979 9.73295 10.5789 10.5789L13.8947 13.8947M13.4211 13.4211L14.3684 12.4737C15.0117 11.8551 15.7639 11.6883 16.4659 11.9754M18.1579 21V15.3158M18.1579 15.3158L21 18.1579M18.1579 15.3158L15.3158 18.1579" stroke="#3A3A3A" stroke-width="1.5" stroke-linecap="round" stroke-linejoin="round"/>
</svg>
