<svg width="24" height="24" viewBox="0 0 24 24" fill="none" xmlns="http://www.w3.org/2000/svg">
<path d="M11.5587 4.80079C11.4745 4.8 11.3799 4.8 11.2717 4.8H7.32367C6.33535 4.8 5.84083 4.8 5.46334 4.99619C5.13129 5.16876 4.86153 5.44393 4.69234 5.78262C4.5 6.16766 4.5 6.67208 4.5 7.68018V18.1202C4.5 19.1283 4.5 19.6321 4.69234 20.0171C4.86153 20.3558 5.13129 20.6314 5.46334 20.804C5.84046 21 6.33439 21 7.3208 21L14.032 21C15.0184 21 15.5116 21 15.8887 20.804C16.2208 20.6314 16.4915 20.3558 16.6606 20.0171C16.8528 19.6324 16.8528 19.1293 16.8528 18.1232V10.4931C16.8528 10.3827 16.8528 10.286 16.852 10.2M11.5587 4.80079C11.8108 4.80313 11.9702 4.81246 12.1224 4.84974C12.3025 4.89383 12.4745 4.96674 12.6324 5.06543C12.8104 5.17671 12.9633 5.33264 13.2683 5.64375L16.026 8.45669C16.3312 8.768 16.483 8.92323 16.5921 9.10488C16.6889 9.26593 16.7605 9.44153 16.8037 9.6252C16.8402 9.78039 16.8496 9.94306 16.852 10.2M11.5587 4.80079V7.32C11.5587 8.3281 11.5587 8.83179 11.7511 9.21683C11.9203 9.55553 12.19 9.83143 12.5221 10.004C12.8992 10.2 13.3931 10.2 14.3795 10.2H16.852M16.852 10.2H16.853M7.33937 3.98262C7.50855 3.64393 7.77832 3.36876 8.11037 3.19619C8.48785 3 8.98238 3 9.9707 3H13.9188C14.0269 3 14.1215 3 14.2058 3.00078C14.4578 3.00312 14.6469 3 14.6469 3L17.7354 3C18.71 3.00001 19.4999 3.80584 19.4999 4.79992L19.4998 7.95C19.4998 7.95 19.4966 8.14305 19.499 8.4M19.499 8.4C19.4998 8.48604 19.4998 8.58266 19.4998 8.69311V16.3232C19.4998 17.3293 19.4998 17.8324 19.3077 18.2171C19.1385 18.5558 18.8678 18.8314 18.5358 19.004C18.1587 19.2 17.8392 19.2 16.8528 19.2M19.499 8.4H19.5" stroke="#3A3A3A" stroke-width="1.5" stroke-linecap="round" stroke-linejoin="round"/>
</svg>
