<svg width="24" height="24" viewBox="0 0 24 24" fill="none" xmlns="http://www.w3.org/2000/svg">
<path d="M18.1254 9.96353L16.2754 7.86353C15.9958 7.5461 15.8553 7.38729 15.6839 7.27319C15.532 7.1721 15.3624 7.09714 15.183 7.05151C14.9807 7 14.7629 7 14.3261 7H8.5373C7.64922 7 7.20484 7 6.86564 7.16349C6.56727 7.3073 6.32486 7.5366 6.17283 7.81885C6 8.13972 6 8.56007 6 9.40015V13.6001C6 14.4402 6 14.86 6.17283 15.1809C6.32486 15.4632 6.56727 15.6929 6.86564 15.8367C7.20451 16 7.64835 16 8.5347 16H14.3261C14.7629 16 14.9807 15.9999 15.183 15.9484C15.3624 15.9027 15.532 15.8277 15.6839 15.7266C15.8553 15.6125 15.9958 15.454 16.2754 15.1366L18.1254 13.0366C18.6069 12.49 18.8472 12.2167 18.9392 11.9116C19.0203 11.6427 19.0203 11.3571 18.9392 11.0882C18.8472 10.7831 18.6069 10.5101 18.1254 9.96353Z" stroke="#3A3A3A" stroke-width="1.5" stroke-linecap="round" stroke-linejoin="round"/>
</svg>
