<svg width="40" height="40" viewBox="0 0 40 40" fill="none" xmlns="http://www.w3.org/2000/svg">
<path d="M24.25 16.5L19.25 21.5L16.75 19M30.5 17.9563C30.5 26.1666 24.2899 29.8476 21.6572 31.0392L21.6539 31.0407C21.377 31.166 21.2382 31.2288 20.9236 31.2829C20.7243 31.3171 20.2769 31.3171 20.0777 31.2829C19.7618 31.2286 19.6215 31.1656 19.3424 31.0392C16.7097 29.8476 10.5 26.1666 10.5 17.9563V13.0002C10.5 11.6001 10.5 10.8995 10.7725 10.3647C11.0122 9.89434 11.3943 9.51217 11.8647 9.27248C12.3995 9 13.1001 9 14.5002 9H26.5002C27.9004 9 28.5995 9 29.1342 9.27248C29.6046 9.51217 29.9881 9.89434 30.2278 10.3647C30.5 10.899 30.5 11.5987 30.5 12.9961V17.9563Z" stroke="#3A3A3A" stroke-linecap="round" stroke-linejoin="round"/>
</svg>
